<?xml version="1.0" encoding="UTF-8"?> <svg xmlns="http://www.w3.org/2000/svg" viewBox="0 0 320 309.8"><defs><style>.cls-1{fill:#89bd3c;}.cls-2{fill:#4f2d90;}</style></defs><g id="Layer_2" data-name="Layer 2"><g id="trace"><rect class="cls-1" x="182.19" y="281.24" width="137.81" height="28.56"></rect><rect class="cls-1" x="182.19" y="240.46" width="137.81" height="28.56"></rect><rect class="cls-2" x="-20.31" y="202.14" width="186.76" height="28.56" transform="translate(-143.35 289.49) rotate(-90)"></rect><path class="cls-1" d="M206.07,199.26a85.36,85.36,0,0,1,0-170.71H320V0H206.07a113.91,113.91,0,0,0,0,227.81H320V199.26Z"></path><path class="cls-2" d="M203.35.07V0H0V28.56H130.68A113.42,113.42,0,0,1,203.35.07Z"></path><path class="cls-2" d="M141.72,207.88V309.8h28.56V222A113.3,113.3,0,0,1,141.72,207.88Z"></path><path class="cls-2" d="M100.26,156.06V309.8h28.56V197.58A114,114,0,0,1,100.26,156.06Z"></path><path class="cls-2" d="M96.17,84H0V112.5H92.2A114.37,114.37,0,0,1,96.17,84Z"></path><path class="cls-2" d="M117.76,42H0V70.53H100.74A114.06,114.06,0,0,1,117.76,42Z"></path></g></g></svg> 