<svg xmlns="http://www.w3.org/2000/svg" viewBox="0 0 497.18 70.49"><defs><style>.cls-1{fill:#512b8b;}.cls-2{fill:#85c446;}.cls-3{fill:#4c555b;}.cls-4{fill:#4e2f91;}</style></defs><g id="Layer_2" data-name="Layer 2"><g id="Layer_1-2" data-name="Layer 1"><polygon class="cls-1" points="18.94 66.57 12.75 66.57 12.75 26.53 18.94 26.53 18.94 66.57 18.94 66.57"/><polygon class="cls-2" points="69.21 57.71 39.42 57.71 39.42 51.53 69.21 51.53 69.21 57.71 69.21 57.71"/><polygon class="cls-2" points="69.21 66.57 39.42 66.57 39.42 60.39 69.21 60.39 69.21 66.57 69.21 66.57"/><path class="cls-1" d="M25.31,8.86H0V15H21.56a24.31,24.31,0,0,1,3.75-6.18Z"/><path class="cls-1" d="M20.62,17.72H0v6.19H19.68a24.31,24.31,0,0,1,.94-6.19Z"/><path class="cls-1" d="M21.58,34v32.6h6.18V42.65A24.66,24.66,0,0,1,21.58,34Z"/><path class="cls-1" d="M30.56,44.83V66.57h6.18V47.81a24.51,24.51,0,0,1-6.18-3Z"/><path class="cls-1" d="M44.15,0H0V6.18H27.91A24.37,24.37,0,0,1,44.15,0Z"/><path class="cls-2" d="M25.85,24.48a18.32,18.32,0,0,1,18.3-18.3H69.21V5.89L65.08,0H44.15a24.48,24.48,0,0,0-.61,49l25.67,0V42.78H44.05a18.31,18.31,0,0,1-18.2-18.3Z"/><path class="cls-3" d="M89.16,59.12l-.64,1.23-.76,1.46L87,63.29c-.25.48-.49.93-.72,1.34s-.4.73-.55,1-.29.48-.39.62l-.25.35.35-.08a3.78,3.78,0,0,1,.56,0,3.94,3.94,0,0,1,.57,0,2.44,2.44,0,0,1,.34.08,1.39,1.39,0,0,1,0-.35,2,2,0,0,1,.14-.46c.17-.44.35-.87.55-1.3l.67-1.35.79,0h3.29c0,.47.09.91.12,1.33s0,.81,0,1.16a4.4,4.4,0,0,1,0,.61c0,.12,0,.24-.08.36l.3-.08a3.33,3.33,0,0,1,.53,0l.64,0a2.49,2.49,0,0,1,.37.09,1.54,1.54,0,0,1-.16-.38,3.91,3.91,0,0,1-.12-.59l-.09-.72c0-.24-.07-.47-.1-.71-.11-1-.22-1.93-.32-2.89s-.21-1.93-.3-2.91c-.06-.56-.11-1-.14-1.35s-.06-.6-.07-.8,0-.35,0-.46,0-.22,0-.32a1.82,1.82,0,0,1-.41.08l-.57,0a2.7,2.7,0,0,1-.54,0L91,55.44c-.18.41-.39.87-.65,1.38l-.74,1.47c-.09.19-.23.46-.42.83Zm3,3.05-1,0H89.52q-.43,0-.84,0c.55-1.11,1.1-2.22,1.66-3.33l.75-1.46.5-1c0,.2.06.39.08.56s0,.36.06.56,0,.41.07.65.06.53.09.85l.32,3.13Zm10.18-.86c0-.11.06-.33.13-.65l.21-1.11c.08-.41.16-.85.25-1.32s.19-.92.28-1.34.17-.8.24-1.12a3.45,3.45,0,0,1,.19-.67,3.74,3.74,0,0,1-1,.32,5,5,0,0,1-1,.1A.65.65,0,0,1,102,56a2.52,2.52,0,0,1,0,.68,7.06,7.06,0,0,1-.1.77c-.05.27-.08.51-.12.74a4,4,0,0,0-.63-.18,4.8,4.8,0,0,0-.67,0,4.23,4.23,0,0,0-1.58.29,4.88,4.88,0,0,0-1.28.78,5.84,5.84,0,0,0-1,1.12A6.84,6.84,0,0,0,96,61.42a8.62,8.62,0,0,0-.42,1.34A6.17,6.17,0,0,0,95.39,64a3.61,3.61,0,0,0,.15,1.08,2.52,2.52,0,0,0,.43.85,2,2,0,0,0,1.61.77,2.48,2.48,0,0,0,1-.19,3.69,3.69,0,0,0,.65-.36,5.71,5.71,0,0,0,.79-.74,6.15,6.15,0,0,0,.72-1,10.66,10.66,0,0,0-.19,1.13c0,.37-.06.71-.07,1l.49-.07a1.31,1.31,0,0,1,.64,0l.27,0c-.11-.07-.16-.23-.17-.49a7.2,7.2,0,0,1,0-1c0-.39.11-.82.19-1.29s.17-1,.27-1.44l.18-1ZM101.27,61c-.08.37-.16.69-.22,1s-.12.51-.18.72-.11.39-.16.55a4.28,4.28,0,0,1-.17.43,3.54,3.54,0,0,1-1.08,1.41,2.12,2.12,0,0,1-1.31.53,1.27,1.27,0,0,1-.69-.18A1.24,1.24,0,0,1,97,65a2.12,2.12,0,0,1-.25-.62,3.27,3.27,0,0,1-.08-.7,4.85,4.85,0,0,1,.12-1,7.78,7.78,0,0,1,.33-1.11,7.24,7.24,0,0,1,.5-1,5.05,5.05,0,0,1,.66-.88,3.11,3.11,0,0,1,.8-.6,2.27,2.27,0,0,1,1.08-.24,3,3,0,0,1,.88.12c.26.08.45.14.59.2L101.27,61ZM107,64.88l-.18-1c-.07-.4-.15-.83-.22-1.31s-.16-.93-.22-1.4-.12-.89-.17-1.3-.06-.74-.06-1a2.83,2.83,0,0,1,0-.5l.06-.28a1.64,1.64,0,0,1-.35.08,4.3,4.3,0,0,1-.58,0,4.78,4.78,0,0,1-.62,0,2.24,2.24,0,0,1-.39-.08,2.71,2.71,0,0,1,.33.63,6.75,6.75,0,0,1,.2.68c.06.24.11.49.16.74l.15.76c.11.62.22,1.24.31,1.85s.2,1.24.31,1.86c.05.35.1.68.15,1a6,6,0,0,1,.07.95l.31-.07a2.5,2.5,0,0,1,.89,0l.27.07a7.33,7.33,0,0,1,.35-.9c.13-.27.3-.61.52-1,.3-.58.59-1.16.88-1.74s.58-1.15.88-1.74c.09-.18.21-.41.37-.68s.3-.55.47-.84.34-.58.52-.85a6.76,6.76,0,0,1,.51-.7,2.2,2.2,0,0,1-.8.11l-.42,0a1.6,1.6,0,0,1-.36-.08,4.05,4.05,0,0,1-.17.7c-.1.28-.19.53-.28.72s-.19.48-.3.71-.22.47-.34.71-.15.29-.26.52l-.39.79-.46.92c-.16.32-.31.63-.46.91s-.27.54-.38.77l-.24.5-.09-.47Zm4.82.09a2.8,2.8,0,0,0,.39.86,1.93,1.93,0,0,0,.66.61,1.85,1.85,0,0,0,1,.24,2.54,2.54,0,0,0,1.23-.3,4.37,4.37,0,0,0,1-.69,4.23,4.23,0,0,0,.68-.76,6.34,6.34,0,0,0,.36-.53,8.76,8.76,0,0,0-.17,1.07q0,.51-.06,1.08l.36,0h.68l.22,0a4.48,4.48,0,0,1-.07-.91,7.33,7.33,0,0,1,.08-1c0-.36.11-.74.18-1.13l.25-1.28.29-1.61c.1-.45.2-.92.31-1.39a10,10,0,0,1,.38-1.3l-1.16.43c-.14-.06-.35-.14-.63-.23a3.46,3.46,0,0,0-1-.14,3.88,3.88,0,0,0-2.14.64,5.64,5.64,0,0,0-1.69,1.68,7.27,7.27,0,0,0-.55,1,9.5,9.5,0,0,0-.35,1,6.86,6.86,0,0,0-.19.92,7.24,7.24,0,0,0,0,.75,4,4,0,0,0,.12,1ZM117.53,61l-.27,1.22a8.28,8.28,0,0,1-.29,1,5.36,5.36,0,0,1-.38.84,3.66,3.66,0,0,1-.55.71,2.44,2.44,0,0,1-.77.54,1.84,1.84,0,0,1-.83.2,1.91,1.91,0,0,1-.41-.06,1.3,1.3,0,0,1-.49-.26,1.39,1.39,0,0,1-.41-.58,2.72,2.72,0,0,1-.17-1,6.66,6.66,0,0,1,.2-1.48,6.14,6.14,0,0,1,.63-1.59,4.33,4.33,0,0,1,1.1-1.27,2.58,2.58,0,0,1,1.61-.51,2.75,2.75,0,0,1,.86.12l.56.22L117.53,61Zm7-2.86a4,4,0,0,0-1,.58,4.55,4.55,0,0,0-.7.68,4.18,4.18,0,0,0-.39.59c0-.21.09-.4.14-.57s.08-.39.14-.67.09-.46.12-.57a3.38,3.38,0,0,1,.11-.34,3.73,3.73,0,0,1-1,.29,7.17,7.17,0,0,1-1,.08,1.56,1.56,0,0,1,.28.22.67.67,0,0,1,.16.51c0,.09,0,.27,0,.56s-.07.65-.14,1.08c0,.11,0,.3-.09.55s-.09.54-.15.85-.11.63-.18,1l-.17.92c0,.29-.09.53-.13.74s-.06.32-.07.36a6.56,6.56,0,0,1-.26,1,5.37,5.37,0,0,1-.22.54l.31-.07a2.84,2.84,0,0,1,.47,0,3.47,3.47,0,0,1,.49,0l.39.07a.88.88,0,0,1,0-.21,2.11,2.11,0,0,1,0-.29,7.85,7.85,0,0,1,.08-1.09q.07-.63.18-1.26c.08-.42.15-.79.21-1.13s.12-.56.15-.68.07-.3.13-.49a3.8,3.8,0,0,1,.22-.61,4.3,4.3,0,0,1,.38-.64,3,3,0,0,1,.58-.61,2.51,2.51,0,0,1,.91-.48,2.86,2.86,0,0,1,.77-.13,1.47,1.47,0,0,1,.7.14,1,1,0,0,1,.36.34,1,1,0,0,1,.13.39c0,.13,0,.23,0,.3a8.33,8.33,0,0,1-.12,1.28c-.08.5-.19,1.06-.31,1.7-.09.43-.16.8-.21,1.09s-.11.56-.16.78-.1.43-.15.62-.11.39-.18.61-.06.18-.08.22a1.09,1.09,0,0,1-.08.15l.33-.08a3.33,3.33,0,0,1,.53,0l.43,0a1.51,1.51,0,0,1,.41.09,1.82,1.82,0,0,1-.06-.79c0-.34.1-.81.18-1.39.06-.39.12-.81.19-1.26s.14-.81.19-1.12.11-.58.17-.89.11-.62.14-.92a5.08,5.08,0,0,0,0-.87,1.61,1.61,0,0,0-.23-.71,1.31,1.31,0,0,0-.56-.5,2.37,2.37,0,0,0-1-.18,3.23,3.23,0,0,0-1.27.24Zm7.11.29a5,5,0,0,0-1.56,1.29,5.37,5.37,0,0,0-.89,1.71,5.75,5.75,0,0,0-.29,1.78,3.42,3.42,0,0,0,.9,2.57,3.52,3.52,0,0,0,2.57.88,5.66,5.66,0,0,0,.89-.06c.25,0,.5-.07.73-.12a4.13,4.13,0,0,1,.15-.5c.07-.16.12-.3.17-.41l0-.14a1.65,1.65,0,0,1-.72.3,4.41,4.41,0,0,1-.85.08,3.08,3.08,0,0,1-1-.16,2.09,2.09,0,0,1-.84-.54,1.55,1.55,0,0,1-.36-.5,2.9,2.9,0,0,1-.19-.54,2.4,2.4,0,0,1-.09-.5c0-.16,0-.29,0-.39a5.85,5.85,0,0,1,.2-1.53,4.88,4.88,0,0,1,.61-1.42,3.71,3.71,0,0,1,1-1,2.67,2.67,0,0,1,1.48-.41l.3,0a2.4,2.4,0,0,1,.43.07,1.52,1.52,0,0,1,.47.18.94.94,0,0,1,.37.37,4.41,4.41,0,0,1,.26-.72,3.64,3.64,0,0,1,.24-.45,5.88,5.88,0,0,0-.61-.19,4.37,4.37,0,0,0-1.16-.12,4.86,4.86,0,0,0-2.28.5Zm6.5,1.13c0-.23.09-.45.14-.68a5.16,5.16,0,0,1,.13-.57,3.57,3.57,0,0,1,.1-.35,2.54,2.54,0,0,1-1,.32,10.12,10.12,0,0,1-1.1.05,1.48,1.48,0,0,1,.3.28,1,1,0,0,1,.17.69c0,.16,0,.38,0,.66s-.08.61-.13,1-.12.73-.18,1.13-.14.77-.2,1.12-.12.67-.18,1-.1.49-.13.62c-.06.29-.11.52-.16.71s-.08.36-.12.49a3.5,3.5,0,0,1-.12.35,2,2,0,0,1-.11.26l.31-.07a2.81,2.81,0,0,1,.46,0,3.9,3.9,0,0,1,.5,0l.36.07a1.36,1.36,0,0,1,0-.17s0-.14,0-.26a8.77,8.77,0,0,1,.08-1c.05-.4.12-.86.21-1.37s.18-1.06.3-1.66.24-1.24.37-1.89l.12-.66Zm-.63-4.14a1.27,1.27,0,0,0-.27.78.66.66,0,0,0,.64.75.85.85,0,0,0,.67-.35,1.23,1.23,0,0,0,.28-.79.78.78,0,0,0-.18-.55.61.61,0,0,0-.46-.2.82.82,0,0,0-.68.36Zm6.16,2.72a4,4,0,0,0-1,.58,4.14,4.14,0,0,0-.7.68,5.64,5.64,0,0,0-.4.59c.06-.21.1-.4.14-.57s.09-.39.15-.67.09-.46.12-.57a3.38,3.38,0,0,1,.11-.34,3.69,3.69,0,0,1-1,.29,6.93,6.93,0,0,1-1,.08,2,2,0,0,1,.28.22.67.67,0,0,1,.15.51c0,.09,0,.27,0,.56s-.07.65-.14,1.08c0,.11-.05.3-.09.55s-.09.54-.15.85-.12.63-.18,1l-.17.92c-.05.29-.1.53-.13.74s-.06.32-.07.36a8,8,0,0,1-.26,1,5.37,5.37,0,0,1-.22.54l.31-.07a2.81,2.81,0,0,1,.46,0,3.49,3.49,0,0,1,.5,0l.39.07c0-.08,0-.15,0-.21v-.29a9.5,9.5,0,0,1,.07-1.09c.06-.42.12-.84.19-1.26s.14-.79.21-1.13.12-.56.15-.68.07-.3.12-.49a5.27,5.27,0,0,1,.23-.61,4.3,4.3,0,0,1,.38-.64,3,3,0,0,1,.58-.61,2.44,2.44,0,0,1,.91-.48,2.8,2.8,0,0,1,.77-.13,1.5,1.5,0,0,1,.7.14,1,1,0,0,1,.49.73c0,.13,0,.23,0,.3a8.33,8.33,0,0,1-.12,1.28c-.09.5-.19,1.06-.31,1.7-.09.43-.16.8-.21,1.09s-.11.56-.16.78-.1.43-.15.62-.11.39-.19.61a2,2,0,0,1-.07.22,1.09,1.09,0,0,1-.08.15l.33-.08a3.33,3.33,0,0,1,.53,0l.43,0a1.51,1.51,0,0,1,.41.09,1.68,1.68,0,0,1-.06-.79c0-.34.1-.81.18-1.39.05-.39.12-.81.19-1.26s.13-.81.19-1.12.1-.58.17-.89.11-.62.14-.92a5.08,5.08,0,0,0,0-.87,1.75,1.75,0,0,0-.23-.71,1.37,1.37,0,0,0-.56-.5,2.37,2.37,0,0,0-1-.18,3.2,3.2,0,0,0-1.27.24Zm11.15.21a4.42,4.42,0,0,0-1.09-.35,4.92,4.92,0,0,0-.85-.09,3.49,3.49,0,0,0-1.73.42,5.32,5.32,0,0,0-1.29,1,5.89,5.89,0,0,0-.89,1.16,10.26,10.26,0,0,0-.5,1,5.73,5.73,0,0,0-.39,1.3,6.59,6.59,0,0,0-.11,1.1,3,3,0,0,0,.63,2,2,2,0,0,0,1.62.73,2.56,2.56,0,0,0,1-.21,3.63,3.63,0,0,0,.87-.57,4.45,4.45,0,0,0,.69-.75,4.74,4.74,0,0,0,.49-.79c0,.1,0,.26-.1.49s-.11.48-.17.74-.11.51-.16.74-.09.38-.11.46-.15.49-.26.8a2.74,2.74,0,0,1-.52.9,2.94,2.94,0,0,1-.94.74,3.34,3.34,0,0,1-1.52.31,4.85,4.85,0,0,1-1-.09,3.12,3.12,0,0,1-.71-.23l-.07,0-.07,0a2.72,2.72,0,0,1-.22.57l-.29.48c.11,0,.32.09.62.16a5.86,5.86,0,0,0,1.25.1,6.64,6.64,0,0,0,2.38-.4,3.85,3.85,0,0,0,1.64-1.13,3.47,3.47,0,0,0,.7-1.33,13.61,13.61,0,0,0,.36-1.5l.9-4.85c.07-.3.13-.6.19-.9s.13-.61.2-.91.18-.71.24-.91.14-.38.21-.54l-1,.44ZM149.47,62a5.7,5.7,0,0,1,.64-1.55,4.21,4.21,0,0,1,1.11-1.23,2.62,2.62,0,0,1,1.59-.5,2.42,2.42,0,0,1,.92.15l.53.23c0,.13-.07.37-.13.71s-.15.7-.23,1.1-.17.78-.26,1.16a6.7,6.7,0,0,1-.24.89,4.86,4.86,0,0,1-.43,1,3.81,3.81,0,0,1-.58.81,2.59,2.59,0,0,1-.73.56,1.87,1.87,0,0,1-.88.21,1.67,1.67,0,0,1-.52-.09,1.26,1.26,0,0,1-.49-.32,1.92,1.92,0,0,1-.37-.62,3,3,0,0,1-.14-1,6,6,0,0,1,.21-1.48Zm13.75-.19h1.53q.3.6.54,1.11c.17.33.33.65.47,1s.28.61.41.91l.42.94c.08.21.14.36.17.46a2.61,2.61,0,0,1,.08.35l.43-.06a3.74,3.74,0,0,1,.52,0,4.27,4.27,0,0,1,.54,0l.5.06a12,12,0,0,1-.82-1.21c-.28-.47-.55-.94-.79-1.41s-.46-.92-.66-1.33a8.84,8.84,0,0,1-.39-.94,7.27,7.27,0,0,0,.86-.28,4.08,4.08,0,0,0,.76-.45,3.84,3.84,0,0,0,1.12-1.31,3.48,3.48,0,0,0,.42-1.64,2.71,2.71,0,0,0-.37-1.42,2.17,2.17,0,0,0-1-.89,2.66,2.66,0,0,0-.66-.16,8,8,0,0,0-.92,0l-1.09,0h-1.77q-.35,0-.69,0a.55.55,0,0,1,.08.2,1.65,1.65,0,0,1,0,.41c0,.19,0,.44-.07.76s-.1.73-.19,1.23c-.18,1-.33,1.8-.47,2.57s-.27,1.51-.42,2.23-.25,1.27-.36,1.72-.19.8-.27,1.07a5.13,5.13,0,0,1-.2.6c0,.13-.09.23-.12.29l.51-.06.52,0a3.16,3.16,0,0,1,.5,0l.29,0a1.77,1.77,0,0,1,0-.2V66.1a6,6,0,0,1,.06-.78c0-.3.08-.55.12-.76l.47-2.73Zm4.46-2.77a2.71,2.71,0,0,1-.55.87,3,3,0,0,1-1,.68,3.41,3.41,0,0,1-1.47.28H164l-.59,0q.12-.6.21-1.2c.07-.4.15-.81.23-1.21s.1-.54.14-.74l.11-.52c0-.15.06-.28.08-.39l.09-.35.76-.08c.25,0,.57,0,1,0a2.39,2.39,0,0,1,.63.09,1.83,1.83,0,0,1,.61.3,1.65,1.65,0,0,1,.46.57,2,2,0,0,1,.19.93,2.46,2.46,0,0,1-.17.83Zm4.76-.66A4.89,4.89,0,0,0,171,59.65a5.82,5.82,0,0,0-.9,1.71,6,6,0,0,0-.31,1.9c0,.16,0,.34,0,.55a3.34,3.34,0,0,0,.13.66,3.41,3.41,0,0,0,.28.7,2.48,2.48,0,0,0,.52.66,2.73,2.73,0,0,0,.65.47,3.37,3.37,0,0,0,.68.26,3.9,3.9,0,0,0,.64.11l.54,0a6.61,6.61,0,0,0,.93-.06,7.72,7.72,0,0,0,.92-.2,3.23,3.23,0,0,1,.12-.55,5.78,5.78,0,0,1,.24-.64,3.06,3.06,0,0,1-.95.45,3.53,3.53,0,0,1-.93.13,2.6,2.6,0,0,1-1.14-.23,2.17,2.17,0,0,1-.78-.63,2.25,2.25,0,0,1-.29-.5,2,2,0,0,1-.17-.53,2.53,2.53,0,0,1-.06-.53,2.09,2.09,0,0,1,0-.45l.3,0h.18a6.66,6.66,0,0,0,2.16-.31,4.6,4.6,0,0,0,1.5-.78,3,3,0,0,0,.86-1,2.47,2.47,0,0,0,.28-1.12,2.35,2.35,0,0,0-.07-.54,1.6,1.6,0,0,0-.31-.59,1.67,1.67,0,0,0-.65-.48,2.6,2.6,0,0,0-1.09-.19,3.74,3.74,0,0,0-1.89.48ZM175,60.32a2.29,2.29,0,0,1-.44.72,3.15,3.15,0,0,1-.77.66,3.47,3.47,0,0,1-1.14.42,3.56,3.56,0,0,1-.8.1h-.59a5,5,0,0,1,.29-1.14,5.35,5.35,0,0,1,.59-1.17A3.93,3.93,0,0,1,173,59a1.82,1.82,0,0,1,1.1-.37,1.07,1.07,0,0,1,.51.11.81.81,0,0,1,.32.25,1,1,0,0,1,.17.35,1.42,1.42,0,0,1,0,.34,1.61,1.61,0,0,1-.14.64Zm4.5-2.2a3.34,3.34,0,0,0-1.06.56,2.45,2.45,0,0,0-.69.85,2.28,2.28,0,0,0-.25,1.07,2.89,2.89,0,0,0,0,.52,1.18,1.18,0,0,0,.23.48,3.29,3.29,0,0,0,.53.53,7.73,7.73,0,0,0,1,.62,4.92,4.92,0,0,1,.67.43,3.59,3.59,0,0,1,.39.36.83.83,0,0,1,.18.33,1.12,1.12,0,0,1,.05.36A1.31,1.31,0,0,1,180,65.3a2,2,0,0,1-1.34.43,3.59,3.59,0,0,1-.65-.07,3.73,3.73,0,0,1-.63-.18,2.25,2.25,0,0,1-.45-.23,1.12,1.12,0,0,1-.22-.21,4.09,4.09,0,0,1-.16.7,3.52,3.52,0,0,1-.27.64,5.21,5.21,0,0,0,1,.25,6.74,6.74,0,0,0,1,.08,4.4,4.4,0,0,0,1.65-.28,3.24,3.24,0,0,0,1.09-.72,2.63,2.63,0,0,0,.6-.95,3,3,0,0,0,.18-1,1.5,1.5,0,0,0-.27-.94,3.56,3.56,0,0,0-.82-.72c-.32-.21-.61-.39-.86-.53a5.17,5.17,0,0,1-.62-.4,1.39,1.39,0,0,1-.37-.41,1,1,0,0,1-.13-.54,1.19,1.19,0,0,1,.13-.54,1.45,1.45,0,0,1,.35-.47,1.8,1.8,0,0,1,.54-.32,1.9,1.9,0,0,1,.73-.13l.29,0a1.5,1.5,0,0,1,.39.08,2,2,0,0,1,.42.2,1.43,1.43,0,0,1,.41.34,5.84,5.84,0,0,1,.53-1.2,5.5,5.5,0,0,0-.57-.2,4.28,4.28,0,0,0-1.07-.11,4.46,4.46,0,0,0-1.36.2Zm6.28.28a4.89,4.89,0,0,0-1.43,1.25,5.82,5.82,0,0,0-.9,1.71,6,6,0,0,0-.31,1.9c0,.16,0,.34,0,.55a3.34,3.34,0,0,0,.13.66,3.41,3.41,0,0,0,.28.7,2.48,2.48,0,0,0,.52.66,2.55,2.55,0,0,0,.65.47,3.37,3.37,0,0,0,.68.26,3.9,3.9,0,0,0,.64.11l.54,0a6.61,6.61,0,0,0,.93-.06,7.72,7.72,0,0,0,.92-.2,3.23,3.23,0,0,1,.12-.55,5.78,5.78,0,0,1,.24-.64,3.06,3.06,0,0,1-.95.45,3.53,3.53,0,0,1-.93.13,2.6,2.6,0,0,1-1.14-.23A2.17,2.17,0,0,1,185,65a2.25,2.25,0,0,1-.29-.5,2,2,0,0,1-.17-.53,2.53,2.53,0,0,1-.06-.53,2.09,2.09,0,0,1,0-.45l.3,0H185a6.66,6.66,0,0,0,2.16-.31,4.6,4.6,0,0,0,1.5-.78,3,3,0,0,0,.86-1,2.47,2.47,0,0,0,.28-1.12,2.35,2.35,0,0,0-.07-.54,1.6,1.6,0,0,0-.31-.59,1.67,1.67,0,0,0-.65-.48,2.6,2.6,0,0,0-1.09-.19,3.74,3.74,0,0,0-1.89.48Zm2.53,1.92a2.29,2.29,0,0,1-.44.72,3.15,3.15,0,0,1-.77.66,4.43,4.43,0,0,1-1.94.52h-.59a5,5,0,0,1,.29-1.14,5.35,5.35,0,0,1,.59-1.17,3.93,3.93,0,0,1,.86-.91,1.82,1.82,0,0,1,1.1-.37,1.07,1.07,0,0,1,.51.11.81.81,0,0,1,.32.25,1.14,1.14,0,0,1,.17.35,1.42,1.42,0,0,1,0,.34,1.61,1.61,0,0,1-.14.64Zm2,4.65a2.8,2.8,0,0,0,.39.86,1.93,1.93,0,0,0,.66.61,1.85,1.85,0,0,0,1,.24,2.54,2.54,0,0,0,1.23-.3,4.37,4.37,0,0,0,1-.69,4.23,4.23,0,0,0,.68-.76,6.34,6.34,0,0,0,.36-.53,8.76,8.76,0,0,0-.17,1.07q0,.51-.06,1.08l.36,0h.68l.22,0a4.48,4.48,0,0,1-.07-.91,7.33,7.33,0,0,1,.08-1c0-.36.11-.74.18-1.13l.25-1.28.29-1.61c.1-.45.2-.92.31-1.39a8.68,8.68,0,0,1,.38-1.3l-1.16.43c-.14-.06-.35-.14-.63-.23a3.51,3.51,0,0,0-1.05-.14,3.88,3.88,0,0,0-2.14.64,5.64,5.64,0,0,0-1.69,1.68,7.27,7.27,0,0,0-.55,1,9.5,9.5,0,0,0-.35,1,6.86,6.86,0,0,0-.19.92,7.24,7.24,0,0,0-.05.75,4,4,0,0,0,.12,1ZM196.07,61c-.09.45-.18.85-.26,1.22a8.28,8.28,0,0,1-.29,1,5.36,5.36,0,0,1-.38.84,3.66,3.66,0,0,1-.55.71,2.44,2.44,0,0,1-.77.54,1.84,1.84,0,0,1-.83.2,1.91,1.91,0,0,1-.41-.06,1.3,1.3,0,0,1-.49-.26,1.39,1.39,0,0,1-.41-.58,2.72,2.72,0,0,1-.17-1,6.66,6.66,0,0,1,.2-1.48,6.14,6.14,0,0,1,.63-1.59,4.33,4.33,0,0,1,1.1-1.27,2.58,2.58,0,0,1,1.61-.51,2.75,2.75,0,0,1,.86.12,5.57,5.57,0,0,1,.55.22L196.07,61ZM199,64.77c-.06.31-.12.56-.15.74s-.07.31-.1.4a2.25,2.25,0,0,1-.08.24c0,.1-.06.17-.07.21l-.1.19.33-.07.52,0,.49,0,.31.07a3.43,3.43,0,0,1,0-.56,10,10,0,0,1,.08-1c.06-.44.13-.89.22-1.36s.18-.9.27-1.31.18-.71.25-.91a4.45,4.45,0,0,1,.32-.67,3.58,3.58,0,0,1,.5-.66,2.77,2.77,0,0,1,.66-.51,1.68,1.68,0,0,1,.81-.2h.21a.79.79,0,0,1,.2,0l.15-.44a3,3,0,0,1,.11-.32,3.32,3.32,0,0,1,.12-.32c.05-.11.1-.25.16-.42a2.87,2.87,0,0,0-1.34.37,4.32,4.32,0,0,0-1.62,1.69c-.17.3-.28.53-.35.68,0-.08,0-.16.05-.24s0-.17,0-.27.05-.23.08-.38.07-.35.11-.59.11-.58.15-.74.07-.31.12-.46a2.58,2.58,0,0,1-.95.3,8.39,8.39,0,0,1-1,.06,1.19,1.19,0,0,1,.27.34,1.44,1.44,0,0,1,.12.66,9.3,9.3,0,0,1-.07.93c-.05.37-.1.75-.17,1.14s-.13.78-.2,1.16-.13.7-.17,1c-.1.54-.19,1-.26,1.29Zm7.63-6.32a5,5,0,0,0-1.56,1.29,5.37,5.37,0,0,0-.89,1.71,5.75,5.75,0,0,0-.29,1.78,3.42,3.42,0,0,0,.9,2.57,3.53,3.53,0,0,0,2.57.88,5.66,5.66,0,0,0,.89-.06c.25,0,.5-.07.73-.12a4.13,4.13,0,0,1,.15-.5c.07-.16.13-.3.17-.41l0-.14a1.65,1.65,0,0,1-.72.3,4.41,4.41,0,0,1-.85.08,3.08,3.08,0,0,1-1-.16,2.09,2.09,0,0,1-.84-.54,1.72,1.72,0,0,1-.36-.5,2.9,2.9,0,0,1-.19-.54,2.4,2.4,0,0,1-.09-.5c0-.16,0-.29,0-.39a5.85,5.85,0,0,1,.2-1.53,4.88,4.88,0,0,1,.61-1.42,3.85,3.85,0,0,1,1-1,2.67,2.67,0,0,1,1.48-.41l.3,0a2.4,2.4,0,0,1,.43.07,1.43,1.43,0,0,1,.47.18,1,1,0,0,1,.38.37,4.09,4.09,0,0,1,.49-1.17,5.88,5.88,0,0,0-.61-.19,4.37,4.37,0,0,0-1.16-.12,4.89,4.89,0,0,0-2.28.5Zm4.51,5.73q0,.19-.09.45l-.12.53-.15.53c0,.17-.08.31-.11.43a2.55,2.55,0,0,1-.08.25,1.08,1.08,0,0,1-.11.21l.35-.07a3.47,3.47,0,0,1,.49,0,2.71,2.71,0,0,1,.46,0l.31.07a.43.43,0,0,1,0-.14,1.87,1.87,0,0,1,0-.28,4.13,4.13,0,0,1,0-.5c0-.24.06-.51.1-.83s.09-.66.16-1,.13-.73.21-1.09.16-.7.25-1a5,5,0,0,1,.28-.83,4,4,0,0,1,.46-.8,3.89,3.89,0,0,1,.53-.54,2.27,2.27,0,0,1,.53-.32,3.32,3.32,0,0,1,.53-.18,2.44,2.44,0,0,1,.57-.08,1.27,1.27,0,0,1,.89.28,1,1,0,0,1,.27.42,2.3,2.3,0,0,1,.07.77,13.53,13.53,0,0,1-.18,1.41c-.09.58-.24,1.36-.42,2.33-.15.72-.28,1.28-.39,1.66a2.87,2.87,0,0,1-.3.77,1.69,1.69,0,0,1,.34-.1,5.8,5.8,0,0,1,.74,0,2,2,0,0,1,.42,0l.21.09c0-.11,0-.2,0-.28a2.33,2.33,0,0,1,0-.32c0-.19,0-.48.07-.86s.1-.77.17-1.18.12-.79.18-1.15.1-.62.13-.78.09-.51.13-.76l.12-.75a4.3,4.3,0,0,0,0-1.42,1.34,1.34,0,0,0-.59-.83A2,2,0,0,0,217,58a3.37,3.37,0,0,0-.62-.07,3.13,3.13,0,0,0-1,.17,3.82,3.82,0,0,0-.91.44,4.22,4.22,0,0,0-.75.64,5.62,5.62,0,0,0-.56.75c.12-.59.23-1.18.34-1.76s.23-1.17.37-1.76c0-.2.07-.37.1-.5s.06-.25.08-.34,0-.16.06-.23a1.25,1.25,0,0,0,.07-.23,2.62,2.62,0,0,1-.53.2l-.56.11-.51,0-.41,0a.94.94,0,0,1,.16.14.84.84,0,0,1,.14.34,2.71,2.71,0,0,1,0,.63,8.74,8.74,0,0,1-.12,1l-1.18,6.54Zm7.48,4.32c.17-.19.44-.48.79-.89a8.1,8.1,0,0,0,1-1.51,6.2,6.2,0,0,0,.32-.62A3.73,3.73,0,0,0,221,65a2.16,2.16,0,0,0,.08-.38c0-.11,0-.22,0-.31a2.68,2.68,0,0,1-.68.23l-.69.13,0,.11V65a2.77,2.77,0,0,1-.11.75,4.64,4.64,0,0,1-.31.88,6.92,6.92,0,0,1-.47.89,4,4,0,0,1-.62.77l.41.26Zm16.58-11.88a2,2,0,0,0-.71-.77,2.8,2.8,0,0,0-1-.36,6,6,0,0,0-1.21,0c-1,.06-1.68.08-2.15.08a2.71,2.71,0,0,1-.84-.09,1.05,1.05,0,0,1,.08.13,1,1,0,0,1,.07.27,2.55,2.55,0,0,1,0,.5,7.09,7.09,0,0,1-.11.83c0,.21-.1.52-.17.95s-.14.91-.24,1.45-.19,1.11-.3,1.7-.22,1.16-.32,1.71-.21,1.05-.3,1.5-.19.79-.26,1-.17.52-.22.65a2,2,0,0,1-.16.36,3,3,0,0,1,.49,0h.8l.49,0a1,1,0,0,1,0-.16,1.63,1.63,0,0,1,0-.24q0-.12,0-.39c0-.19.05-.39.08-.6s.06-.42.09-.61.06-.33.08-.41,0-.23.07-.44.08-.43.12-.66.09-.44.13-.64.06-.35.07-.43a3.45,3.45,0,0,0,.57.05h.6l.75,0a4.89,4.89,0,0,0,1-.17,4.76,4.76,0,0,0,1-.44,3.27,3.27,0,0,0,1-.84,3.53,3.53,0,0,0,.66-1.24,4.69,4.69,0,0,0,.21-1.36,2.76,2.76,0,0,0-.26-1.3Zm-1.33,2.52a3,3,0,0,1-.49.93,2.87,2.87,0,0,1-.82.68,3.14,3.14,0,0,1-1.13.38,5.63,5.63,0,0,1-.82.07l-.73,0c.05-.25.09-.48.13-.68l.12-.6c0-.2.07-.4.11-.61s.08-.43.13-.68l.15-.81c.05-.21.08-.4.11-.56s.07-.32.1-.46.08-.28.12-.45l.48,0h.52l.68,0a1.93,1.93,0,0,1,.71.2,1.33,1.33,0,0,1,.56.52,1.85,1.85,0,0,1,.23,1,3.58,3.58,0,0,1-.16,1.08Zm4.88-.93a4.22,4.22,0,0,0-1.34.81,4.62,4.62,0,0,0-.78.91A5.57,5.57,0,0,0,236,61a7.39,7.39,0,0,0-.37,1.24,6.08,6.08,0,0,0-.13,1.27,3.17,3.17,0,0,0,.8,2.35,2.91,2.91,0,0,0,2.14.8A3.89,3.89,0,0,0,240,66.4a4.23,4.23,0,0,0,1.19-.78,4.87,4.87,0,0,0,.86-1.09,7.1,7.1,0,0,0,.59-1.25A6.75,6.75,0,0,0,243,62a6.46,6.46,0,0,0,.1-1.08,4,4,0,0,0-.16-1.15,2.43,2.43,0,0,0-.49-1,2.3,2.3,0,0,0-.88-.66,3.23,3.23,0,0,0-1.31-.24,4.08,4.08,0,0,0-1.48.28Zm-.74,7.6a1.46,1.46,0,0,1-.58-.35,1.8,1.8,0,0,1-.42-.68,2.78,2.78,0,0,1-.17-1.08,6.18,6.18,0,0,1,.07-.89,6.43,6.43,0,0,1,.23-1.07,8.13,8.13,0,0,1,.42-1.09,4.48,4.48,0,0,1,.61-1A3.18,3.18,0,0,1,239,59a2.16,2.16,0,0,1,1.08-.27,1.9,1.9,0,0,1,.63.11,1.57,1.57,0,0,1,.54.35,1.61,1.61,0,0,1,.37.6,2.56,2.56,0,0,1,.14.89,7.65,7.65,0,0,1-.09,1.12,9,9,0,0,1-.26,1.17,7.54,7.54,0,0,1-.4,1.1,3.57,3.57,0,0,1-.51.87,3,3,0,0,1-.56.52,2.15,2.15,0,0,1-.53.29,1.72,1.72,0,0,1-.45.13,2.25,2.25,0,0,1-.34,0,1.94,1.94,0,0,1-.61-.1ZM246.7,58c0-.08,0-.23.07-.46s.1-.49.16-.78.13-.6.2-.91.15-.57.22-.8a1.64,1.64,0,0,1-.42.21,2.93,2.93,0,0,1-.53.13,5.41,5.41,0,0,1-.58.07l-.54,0a.69.69,0,0,1,.29.25,1,1,0,0,1,.13.6c0,.11,0,.21,0,.32s0,.25,0,.41-.06.36-.1.59l-.15.88-.94,5.33c0,.06,0,.17-.06.32l-.09.48c0,.16-.07.32-.1.46l-.06.3c0,.21-.09.37-.13.49l-.07.3a1.13,1.13,0,0,1-.07.18l-.09.15.27-.06a2.77,2.77,0,0,1,.46,0,4,4,0,0,1,.56,0l.33.06s0-.11,0-.19a3.13,3.13,0,0,1,0-.34,7.47,7.47,0,0,1,.08-1.06c.06-.41.12-.79.18-1.12L246.7,58ZM250,59.58c0-.23.08-.45.14-.68s.09-.45.12-.57a3.58,3.58,0,0,1,.11-.35,2.54,2.54,0,0,1-1,.32,10.24,10.24,0,0,1-1.1.05,2.31,2.31,0,0,1,.3.28,1.09,1.09,0,0,1,.17.69,5,5,0,0,1-.06.66c0,.29-.08.61-.13,1s-.11.73-.18,1.13-.13.77-.19,1.12-.13.67-.18,1-.1.49-.13.62c-.07.29-.12.52-.16.71a3.08,3.08,0,0,1-.13.49c0,.14-.08.25-.11.35l-.12.26.31-.07a2.94,2.94,0,0,1,.47,0,3.6,3.6,0,0,1,.49,0l.37.07a.59.59,0,0,1,0-.17,1.71,1.71,0,0,1,0-.26,8.77,8.77,0,0,1,.08-1c0-.4.12-.86.2-1.37s.19-1.06.3-1.66.25-1.24.37-1.89c0-.22.08-.44.13-.66Zm-.64-4.14a1.27,1.27,0,0,0-.27.78.66.66,0,0,0,.64.75.85.85,0,0,0,.67-.35,1.18,1.18,0,0,0,.28-.79.78.78,0,0,0-.18-.55.6.6,0,0,0-.46-.2.84.84,0,0,0-.68.36Zm4.52,3a4.73,4.73,0,0,0-1.56,1.29,5.2,5.2,0,0,0-.9,1.71,6.07,6.07,0,0,0-.29,1.78,3.39,3.39,0,0,0,.91,2.57,3.52,3.52,0,0,0,2.57.88,5.75,5.75,0,0,0,.89-.06c.25,0,.49-.07.73-.12a2.21,2.21,0,0,1,.15-.5c.07-.16.12-.3.16-.41l.05-.14a1.69,1.69,0,0,1-.73.3,4.34,4.34,0,0,1-.85.08,3,3,0,0,1-1-.16,2.06,2.06,0,0,1-.85-.54,1.68,1.68,0,0,1-.35-.5,3,3,0,0,1-.2-.54,2.36,2.36,0,0,1-.08-.5c0-.16,0-.29,0-.39a6.3,6.3,0,0,1,.2-1.53,4.9,4.9,0,0,1,.62-1.42,3.68,3.68,0,0,1,1-1,2.67,2.67,0,0,1,1.48-.41l.3,0a2.5,2.5,0,0,1,.44.07,1.62,1.62,0,0,1,.47.18,1,1,0,0,1,.37.37,4.45,4.45,0,0,1,.5-1.17,6.24,6.24,0,0,0-.62-.19,4.32,4.32,0,0,0-1.16-.12,4.85,4.85,0,0,0-2.27.5Zm7.24,7.09q-.06-.33-.15-.9c-.07-.39-.13-.82-.2-1.28s-.13-1-.19-1.45-.12-1-.18-1.43-.1-.86-.13-1.22a7.71,7.71,0,0,1-.05-.83V58.3a1.62,1.62,0,0,1,0-.21l-.31.07a4,4,0,0,1-.59,0,4.3,4.3,0,0,1-.58,0,2.14,2.14,0,0,1-.34-.08,2.4,2.4,0,0,1,.3.64c.09.28.18.59.26.94s.16.72.24,1.11.14.78.2,1.16l.18,1.12c0,.31.09.61.12.88s.07.55.1.83.07.61.11,1c0,.2,0,.36,0,.47s0,.23,0,.35h.65a6.94,6.94,0,0,1-.38.71c-.14.24-.28.46-.43.67s-.3.38-.43.54a2.27,2.27,0,0,1-.35.35,1.65,1.65,0,0,1-.72.35,2.62,2.62,0,0,1-.49.07,1,1,0,0,1-.27,0l-.17-.06c0,.15-.07.27-.1.37a2.17,2.17,0,0,1-.08.3,2.47,2.47,0,0,0-.1.29c0,.1-.07.21-.11.35h.45a2.59,2.59,0,0,0,.67-.1A4.67,4.67,0,0,0,259,70a4.41,4.41,0,0,0,.93-.73c.11-.12.24-.25.37-.41a7.55,7.55,0,0,0,.44-.62c.17-.26.36-.6.57-1s.46-.92.74-1.54c0,0,.08-.19.2-.47s.28-.63.46-1l.59-1.34.63-1.39.54-1.2.35-.74c.23-.46.42-.8.56-1s.23-.36.29-.44l-.32.07a3.31,3.31,0,0,1-.54,0,3.27,3.27,0,0,1-.44,0l-.34-.07a2.71,2.71,0,0,1-.06.38,5.06,5.06,0,0,1-.16.59l-.26.74c-.12.35-.26.74-.43,1.2s-.37.94-.59,1.46-.44,1-.67,1.55l-.28.66c-.1.21-.21.43-.31.65l-.08.22ZM270.2,65a2.78,2.78,0,0,0,.38.86,1.93,1.93,0,0,0,.66.61,1.86,1.86,0,0,0,1,.24,2.53,2.53,0,0,0,1.22-.3,4.69,4.69,0,0,0,1-.69,5.17,5.17,0,0,0,.68-.76c.17-.25.29-.42.35-.53a8.76,8.76,0,0,0-.17,1.07q0,.51-.06,1.08l.37,0h.68l.21,0a5.33,5.33,0,0,1-.07-.91,9.32,9.32,0,0,1,.08-1c0-.36.11-.74.19-1.13s.16-.82.24-1.28l.3-1.61c.09-.45.19-.92.3-1.39a11.93,11.93,0,0,1,.38-1.3l-1.15.43c-.15-.06-.36-.14-.64-.23a3.44,3.44,0,0,0-1-.14,3.91,3.91,0,0,0-2.15.64,5.76,5.76,0,0,0-1.69,1.68,6.29,6.29,0,0,0-.54,1,7.82,7.82,0,0,0-.36,1,6.77,6.77,0,0,0-.18.92,5.36,5.36,0,0,0-.06.75,3.52,3.52,0,0,0,.13,1ZM276,61c-.09.45-.18.85-.27,1.22s-.18.71-.28,1a5.39,5.39,0,0,1-.39.84,3.25,3.25,0,0,1-.54.71,2.69,2.69,0,0,1-.77.54,1.91,1.91,0,0,1-.84.2,1.76,1.76,0,0,1-.4-.06,1.23,1.23,0,0,1-.49-.26,1.5,1.5,0,0,1-.42-.58,2.72,2.72,0,0,1-.17-1,6.18,6.18,0,0,1,.21-1.48,5.5,5.5,0,0,1,.63-1.59,4.3,4.3,0,0,1,1.09-1.27,2.6,2.6,0,0,1,1.61-.51,2.86,2.86,0,0,1,.87.12l.55.22L276,61Zm7-2.86a4,4,0,0,0-1,.58,4.05,4.05,0,0,0-.69.68,3.61,3.61,0,0,0-.4.59l.14-.57c0-.17.09-.39.14-.67s.09-.46.12-.57.07-.23.11-.34a3.62,3.62,0,0,1-1,.29,7.07,7.07,0,0,1-1,.08,1.27,1.27,0,0,1,.28.22.64.64,0,0,1,.16.51c0,.09,0,.27,0,.56s-.07.65-.13,1.08c0,.11-.05.3-.1.55s-.09.54-.14.85-.12.63-.18,1l-.17.92c-.06.29-.1.53-.14.74s-.06.32-.07.36a8.37,8.37,0,0,1-.25,1,5.14,5.14,0,0,1-.23.54l.31-.07a2.94,2.94,0,0,1,.47,0,3.62,3.62,0,0,1,.5,0l.39.07a1,1,0,0,1,0-.21,2.11,2.11,0,0,1,0-.29,9.79,9.79,0,0,1,.08-1.09c.05-.42.11-.84.19-1.26s.14-.79.21-1.13.11-.56.14-.68.08-.3.13-.49a3.91,3.91,0,0,1,.23-.61,3.08,3.08,0,0,1,.38-.64,2.72,2.72,0,0,1,.57-.61,2.47,2.47,0,0,1,.92-.48,2.74,2.74,0,0,1,.77-.13,1.42,1.42,0,0,1,.69.14,1,1,0,0,1,.36.34.86.86,0,0,1,.13.39c0,.13,0,.23,0,.3a7.37,7.37,0,0,1-.13,1.28c-.08.5-.18,1.06-.31,1.7-.08.43-.15.8-.21,1.09s-.11.56-.16.78-.09.43-.14.62l-.19.61a1.59,1.59,0,0,1-.08.22,1.09,1.09,0,0,1-.08.15l.33-.08a3.33,3.33,0,0,1,.53,0l.44,0a1.44,1.44,0,0,1,.4.09,1.7,1.7,0,0,1-.05-.79c0-.34.09-.81.18-1.39q.07-.59.18-1.26c.08-.44.14-.81.19-1.12s.11-.58.17-.89.11-.62.14-.92a4.23,4.23,0,0,0,0-.87,1.61,1.61,0,0,0-.23-.71,1.31,1.31,0,0,0-.56-.5,2.34,2.34,0,0,0-1-.18,3.23,3.23,0,0,0-1.27.24Zm11.29,3.15c0-.11.06-.33.13-.65l.21-1.11c.07-.41.16-.85.25-1.32s.19-.92.28-1.34.17-.8.24-1.12a4.71,4.71,0,0,1,.18-.67,3.55,3.55,0,0,1-.95.32,5,5,0,0,1-1,.1.65.65,0,0,1,.27.44,3,3,0,0,1,0,.68,7.06,7.06,0,0,1-.1.77c0,.27-.08.51-.12.74A3.83,3.83,0,0,0,293,58a4.57,4.57,0,0,0-.67,0,4.22,4.22,0,0,0-1.57.29,4.88,4.88,0,0,0-1.28.78,5.84,5.84,0,0,0-1,1.12,6.84,6.84,0,0,0-.69,1.31,7.67,7.67,0,0,0-.42,1.34,6.17,6.17,0,0,0-.14,1.22,3.61,3.61,0,0,0,.15,1.08,2.52,2.52,0,0,0,.43.85,2,2,0,0,0,1.61.77,2.48,2.48,0,0,0,1-.19,3.69,3.69,0,0,0,.65-.36,5.71,5.71,0,0,0,.79-.74,6.15,6.15,0,0,0,.72-1,10.66,10.66,0,0,0-.19,1.13c0,.37-.07.71-.08,1,.15,0,.32,0,.5-.07a1.31,1.31,0,0,1,.64,0l.27,0c-.11-.07-.16-.23-.17-.49a7.2,7.2,0,0,1,0-1c0-.39.11-.82.19-1.29s.17-1,.26-1.44l.19-1ZM293.14,61c-.08.37-.16.69-.22,1s-.12.51-.18.72-.11.39-.16.55a4.28,4.28,0,0,1-.17.43,3.54,3.54,0,0,1-1.08,1.41,2.15,2.15,0,0,1-1.31.53,1.27,1.27,0,0,1-.69-.18,1.24,1.24,0,0,1-.46-.45,1.88,1.88,0,0,1-.25-.62,3.27,3.27,0,0,1-.08-.7,4.85,4.85,0,0,1,.12-1,7.78,7.78,0,0,1,.33-1.11,7.24,7.24,0,0,1,.5-1,5.05,5.05,0,0,1,.66-.88,3.11,3.11,0,0,1,.8-.6,2.27,2.27,0,0,1,1.08-.24,3,3,0,0,1,.88.12c.26.08.45.14.59.2L293.14,61ZM308,56.62a2,2,0,0,0-.71-.77,2.74,2.74,0,0,0-1-.36,6,6,0,0,0-1.2,0c-1,.06-1.69.08-2.16.08a2.76,2.76,0,0,1-.84-.09,1.05,1.05,0,0,1,.08.13.74.74,0,0,1,.07.27,2.55,2.55,0,0,1,0,.5,7.09,7.09,0,0,1-.11.83c0,.21-.1.52-.16.95s-.15.91-.25,1.45-.19,1.11-.3,1.7-.22,1.16-.32,1.71-.2,1.05-.3,1.5-.19.79-.26,1-.17.52-.22.65a3.28,3.28,0,0,1-.15.36,2.8,2.8,0,0,1,.48,0h.8l.49,0a.94.94,0,0,1,0-.16,1.44,1.44,0,0,1,0-.24q0-.12,0-.39c0-.19,0-.39.08-.6s.06-.42.09-.61.06-.33.08-.41,0-.23.07-.44.08-.43.13-.66.08-.44.12-.64.06-.35.07-.43a3.45,3.45,0,0,0,.57.05h.6l.75,0a5.12,5.12,0,0,0,1-.17,4.69,4.69,0,0,0,1-.44,3.27,3.27,0,0,0,1-.84,3.55,3.55,0,0,0,.67-1.24,4.69,4.69,0,0,0,.21-1.36,2.76,2.76,0,0,0-.27-1.3Zm-1.33,2.52a2.71,2.71,0,0,1-1.31,1.61,3.08,3.08,0,0,1-1.13.38,5.63,5.63,0,0,1-.82.07l-.72,0c0-.25.08-.48.12-.68l.12-.6c0-.2.07-.4.11-.61s.08-.43.13-.68l.15-.81c.05-.21.08-.4.11-.56s.07-.32.11-.46l.11-.45.48,0h.52l.68,0a1.93,1.93,0,0,1,.71.2,1.35,1.35,0,0,1,.57.52,2,2,0,0,1,.22,1,3.58,3.58,0,0,1-.16,1.08Zm2.13,5.63c-.06.31-.12.56-.15.74s-.07.31-.1.4a2.25,2.25,0,0,1-.08.24c0,.1-.06.17-.07.21l-.1.19.33-.07.52,0,.49,0,.31.07a3.43,3.43,0,0,1,0-.56,10,10,0,0,1,.08-1c.06-.44.13-.89.22-1.36s.18-.9.27-1.31.18-.71.25-.91a4.45,4.45,0,0,1,.32-.67,3.58,3.58,0,0,1,.5-.66,2.77,2.77,0,0,1,.66-.51,1.68,1.68,0,0,1,.81-.2h.22a.81.81,0,0,1,.19,0l.15-.44a3,3,0,0,1,.11-.32c0-.1.08-.2.12-.32s.1-.25.17-.42a2.88,2.88,0,0,0-1.35.37A4.32,4.32,0,0,0,311,59.93c-.16.3-.28.53-.35.68,0-.08,0-.16.05-.24s0-.17.06-.27,0-.23.07-.38.07-.35.11-.59.11-.58.15-.74l.12-.46a2.58,2.58,0,0,1-.95.3,8.39,8.39,0,0,1-1,.06,1.19,1.19,0,0,1,.27.34,1.44,1.44,0,0,1,.12.66,7,7,0,0,1-.07.93c-.05.37-.1.75-.17,1.14s-.13.78-.2,1.16-.13.7-.17,1c-.1.54-.19,1-.26,1.29Zm4.95.2a2.78,2.78,0,0,0,.38.86,2,2,0,0,0,.67.61,1.85,1.85,0,0,0,1,.24,2.54,2.54,0,0,0,1.23-.3,5.07,5.07,0,0,0,1.64-1.45,6.34,6.34,0,0,0,.36-.53,8.76,8.76,0,0,0-.17,1.07c0,.34,0,.7-.07,1.08l.37,0h.68l.22,0a4.48,4.48,0,0,1-.07-.91,9.2,9.2,0,0,1,.07-1c0-.36.11-.74.19-1.13s.16-.82.24-1.28l.3-1.61c.09-.45.19-.92.3-1.39a10,10,0,0,1,.39-1.3l-1.16.43c-.14-.06-.36-.14-.64-.23a3.44,3.44,0,0,0-1-.14,3.88,3.88,0,0,0-2.14.64,5.79,5.79,0,0,0-1.7,1.68,7.19,7.19,0,0,0-.54,1,7.72,7.72,0,0,0-.35,1,6.86,6.86,0,0,0-.19.92,5.23,5.23,0,0,0-.05.75,4,4,0,0,0,.12,1ZM319.46,61c-.09.45-.18.85-.26,1.22a10.51,10.51,0,0,1-.29,1,6.47,6.47,0,0,1-.38.84,3.66,3.66,0,0,1-.55.71,2.56,2.56,0,0,1-.77.54,1.67,1.67,0,0,1-1.24.14,1.23,1.23,0,0,1-.49-.26,1.39,1.39,0,0,1-.41-.58,2.54,2.54,0,0,1-.17-1,6.12,6.12,0,0,1,.2-1.48,5.5,5.5,0,0,1,.63-1.59,4.33,4.33,0,0,1,1.1-1.27,2.57,2.57,0,0,1,1.6-.51,2.81,2.81,0,0,1,.87.12c.24.09.43.16.55.22L319.46,61Zm5.38-2.57a5,5,0,0,0-1.56,1.29,5.37,5.37,0,0,0-.89,1.71,5.75,5.75,0,0,0-.29,1.78,3.42,3.42,0,0,0,.9,2.57,3.52,3.52,0,0,0,2.57.88,5.75,5.75,0,0,0,.89-.06c.25,0,.49-.07.73-.12a2.21,2.21,0,0,1,.15-.5c.07-.16.12-.3.16-.41l.05-.14a1.7,1.7,0,0,1-.72.3,4.41,4.41,0,0,1-.85.08,3,3,0,0,1-1-.16,2.09,2.09,0,0,1-.84-.54,1.55,1.55,0,0,1-.36-.5,3.93,3.93,0,0,1-.2-.54,3.23,3.23,0,0,1-.08-.5c0-.16,0-.29,0-.39a5.87,5.87,0,0,1,.21-1.53,4.88,4.88,0,0,1,.61-1.42,3.71,3.71,0,0,1,1-1,2.65,2.65,0,0,1,1.48-.41l.3,0a2.4,2.4,0,0,1,.43.07,1.52,1.52,0,0,1,.47.18,1,1,0,0,1,.37.37,4.41,4.41,0,0,1,.26-.72,3.64,3.64,0,0,1,.24-.45,5.88,5.88,0,0,0-.61-.19,4.43,4.43,0,0,0-1.16-.12,4.86,4.86,0,0,0-2.28.5Zm6.61,1.17h1.43a5.1,5.1,0,0,1,.25-.94c-.25,0-.5,0-.76.06h-.75c0-.07,0-.19.08-.36s.08-.36.11-.55.08-.37.11-.54S332,57,332,57c.1-.43.19-.76.25-1s.12-.43.19-.62l-.36.13-.42.11-.42.09-.32,0V56c0,.08,0,.18,0,.3s0,.24-.06.4-.06.35-.1.58-.1.52-.14.75-.09.49-.15.77h-.69l-.5,0a1.92,1.92,0,0,1,0,.39,3.19,3.19,0,0,1-.12.49h1.18l-.77,3.62c-.12.52-.2.92-.25,1.2a3.44,3.44,0,0,0-.08.73,1.42,1.42,0,0,0,.23.86,1.56,1.56,0,0,0,.54.43,1.7,1.7,0,0,0,.6.17l.42,0a3.34,3.34,0,0,0,.5,0l.45-.1c0-.13.08-.3.14-.52s.13-.41.19-.6a1.5,1.5,0,0,1-.32.2,1.44,1.44,0,0,1-.65.11,1,1,0,0,1-.5-.1.78.78,0,0,1-.26-.25.84.84,0,0,1-.1-.29,1.86,1.86,0,0,1,0-.22,4.43,4.43,0,0,1,.07-.74c.05-.3.11-.61.18-.94l.78-3.53Zm4.44,0c0-.23.09-.45.14-.68s.09-.45.12-.57.07-.24.11-.35a2.54,2.54,0,0,1-1,.32,10.12,10.12,0,0,1-1.1.05,1.48,1.48,0,0,1,.3.28,1.09,1.09,0,0,1,.17.69c0,.16,0,.38-.05.66s-.08.61-.14,1-.11.73-.17,1.13-.14.77-.2,1.12-.12.67-.18,1-.1.49-.13.62c-.06.29-.12.52-.16.71s-.08.36-.12.49a3.5,3.5,0,0,1-.12.35,2.06,2.06,0,0,1-.12.26l.32-.07a2.81,2.81,0,0,1,.46,0,3.6,3.6,0,0,1,.49,0l.37.07a1.36,1.36,0,0,1,0-.17s0-.14,0-.26a8.77,8.77,0,0,1,.08-1c.05-.4.12-.86.2-1.37s.19-1.06.31-1.66.24-1.24.36-1.89c.05-.22.09-.44.13-.66Zm-.63-4.14a1.27,1.27,0,0,0-.27.78.66.66,0,0,0,.63.75.83.83,0,0,0,.67-.35,1.18,1.18,0,0,0,.29-.79.78.78,0,0,0-.18-.55.61.61,0,0,0-.46-.2.82.82,0,0,0-.68.36Zm4.51,3a5,5,0,0,0-1.56,1.29,5.37,5.37,0,0,0-.89,1.71,5.75,5.75,0,0,0-.29,1.78,3.42,3.42,0,0,0,.9,2.57,3.52,3.52,0,0,0,2.57.88,5.66,5.66,0,0,0,.89-.06c.25,0,.49-.07.73-.12a2.88,2.88,0,0,1,.15-.5c.07-.16.12-.3.16-.41l.05-.14a1.7,1.7,0,0,1-.72.3,4.41,4.41,0,0,1-.85.08,3.08,3.08,0,0,1-1-.16,2.09,2.09,0,0,1-.84-.54,1.55,1.55,0,0,1-.36-.5,2.9,2.9,0,0,1-.19-.54,2.4,2.4,0,0,1-.09-.5c0-.16,0-.29,0-.39a5.87,5.87,0,0,1,.21-1.53,4.88,4.88,0,0,1,.61-1.42,3.71,3.71,0,0,1,1-1,2.65,2.65,0,0,1,1.48-.41l.3,0a2.4,2.4,0,0,1,.43.07,1.52,1.52,0,0,1,.47.18.94.94,0,0,1,.37.37,4.41,4.41,0,0,1,.26-.72,3.64,3.64,0,0,1,.24-.45,5.88,5.88,0,0,0-.61-.19,4.43,4.43,0,0,0-1.16-.12,4.86,4.86,0,0,0-2.28.5Zm6.69-.05A4.85,4.85,0,0,0,345,59.65a5.62,5.62,0,0,0-.91,1.71,6.35,6.35,0,0,0-.31,1.9c0,.16,0,.34,0,.55a2.71,2.71,0,0,0,.12.66,3.46,3.46,0,0,0,.29.7,2.26,2.26,0,0,0,.51.66,2.59,2.59,0,0,0,.66.47,3.16,3.16,0,0,0,.68.26,3.79,3.79,0,0,0,.63.11l.54,0a6.76,6.76,0,0,0,.94-.06,8.16,8.16,0,0,0,.92-.2,3.57,3.57,0,0,1,.36-1.19,3.11,3.11,0,0,1-1,.45,3.53,3.53,0,0,1-.93.13,2.6,2.6,0,0,1-1.14-.23,2.17,2.17,0,0,1-.78-.63,2.72,2.72,0,0,1-.29-.5,3.27,3.27,0,0,1-.17-.53c0-.19-.05-.36-.06-.53a2.09,2.09,0,0,1,0-.45l.31,0h.18a6.66,6.66,0,0,0,2.16-.31,4.65,4.65,0,0,0,1.49-.78,3.12,3.12,0,0,0,.87-1,2.61,2.61,0,0,0,.28-1.12,2.43,2.43,0,0,0-.08-.54,1.44,1.44,0,0,0-.3-.59,1.84,1.84,0,0,0-.65-.48,2.63,2.63,0,0,0-1.09-.19,3.75,3.75,0,0,0-1.9.48ZM349,60.32a2.33,2.33,0,0,1-.45.72,3.15,3.15,0,0,1-.77.66,3.47,3.47,0,0,1-1.14.42,3.56,3.56,0,0,1-.8.1h-.58a5.35,5.35,0,0,1,.88-2.31A3.89,3.89,0,0,1,347,59a1.84,1.84,0,0,1,1.1-.37,1.14,1.14,0,0,1,.52.11.89.89,0,0,1,.32.25,1.11,1.11,0,0,1,.16.35,1.47,1.47,0,0,1,.05.34,1.81,1.81,0,0,1-.14.64Z"/><path class="cls-4" d="M92.8,22c.13,1.62.27,3.74.27,10.56,0,9.59-.71,10.23-1,10.56a26.17,26.17,0,0,1,2.79-.2,17,17,0,0,1,2.56.2,4.91,4.91,0,0,1-.61-2,75.81,75.81,0,0,1-.33-8.91c0-4.88.06-7.5.2-10.16h2.82c3.27.1,3.67.17,5.08,1.11a12.73,12.73,0,0,1-.17-1.95A15.27,15.27,0,0,1,104.6,19c-2.62.21-5.41.24-10.09.24A89.31,89.31,0,0,1,85.06,19a19,19,0,0,1,.24,2.22,8.54,8.54,0,0,1-.24,1.85c1.08-.8,1.68-1.07,4.58-1.11ZM117.52,33.8c.1-1.14.1-1.65.1-2A8.78,8.78,0,0,0,116,26.34,7.32,7.32,0,0,0,110.25,24,8.36,8.36,0,0,0,104,26.44a10.15,10.15,0,0,0-2.29,7.06c0,6.09,3.7,9.69,9.82,9.69a16.39,16.39,0,0,0,4.78-.68,10.88,10.88,0,0,1,.71-3.43c-.81.84-1.79,1.89-4.88,1.89-2,0-4.31-.48-5.69-2.9a9.58,9.58,0,0,1-1.11-4.27Zm-12.18-2c.1-1.45.27-3.47,1.82-4.85a4.14,4.14,0,0,1,2.82-1,3.62,3.62,0,0,1,3.23,1.65,7.3,7.3,0,0,1,.88,4.24Zm22.84-.64-2.66-4.24c-.87-1.48-1.11-1.85-1.11-2.42a1.21,1.21,0,0,1,.07-.37,26.17,26.17,0,0,1-2.79.2,26.18,26.18,0,0,1-2.76-.2,31,31,0,0,1,4,5.08l3.17,4.67-4,5.32-1.82,2.28a10.06,10.06,0,0,1-1.58,1.55,12.82,12.82,0,0,1,2.22-.2,19.58,19.58,0,0,1,2.42.2,6.89,6.89,0,0,1,1.38-2.72l2.93-4.21,2.29,3.5c1.21,2,1.44,2.49,1.61,3.46a19.29,19.29,0,0,1,2.66-.26,19.53,19.53,0,0,1,2.75.26,11.5,11.5,0,0,1-1.71-1.81c-.74-.91-1.41-1.85-2.05-2.79l-3.53-5,3.6-4.77a57.92,57.92,0,0,1,3.66-4.51,13.76,13.76,0,0,1-2,.13c-.77,0-1.55-.06-2.32-.13a9,9,0,0,1-1.72,3.4l-2.65,3.63Zm25-1.21c-.06-2-.17-3.74-2.15-4.95a7.84,7.84,0,0,0-4.1-1A19,19,0,0,0,139,26a8.15,8.15,0,0,1,1.11,3,8.38,8.38,0,0,1,6.19-2.89c3,0,3.5,2.18,3.53,4.34v.87c-.91,0-1.78,0-2.28,0-1,0-4.88-.14-7.34,1.91a5.22,5.22,0,0,0-1.91,4.27c0,3.44,2.22,5.76,5.51,5.76a6.16,6.16,0,0,0,4.95-2.26A5.63,5.63,0,0,0,150,38.78v2.49a17,17,0,0,0,.1,1.81,15.77,15.77,0,0,1,2.15-.2,15.35,15.35,0,0,1,2.16.2c-1-1.37-1.15-2.15-1.15-4.64V30ZM141.9,37.43a4,4,0,0,1,2.86-4,9.59,9.59,0,0,1,2.69-.34,16.5,16.5,0,0,1,2.35.17c-.1,2.35-.17,4.07-1.71,5.82a4.11,4.11,0,0,1-3.16,1.44,2.92,2.92,0,0,1-3-3.13Zm21.29-2.32c1.34.47,3,1.08,3,2.93a2.69,2.69,0,0,1-1.08,2.12,4.72,4.72,0,0,1-2.55.6c-3.13,0-4.27-1.27-4.91-2a24.47,24.47,0,0,1-.81,3.63,20.05,20.05,0,0,0,5.15.74c2.82,0,4.64-.54,6-1.92a5.39,5.39,0,0,0,1.42-3.76,4.52,4.52,0,0,0-1.08-3.13c-1.08-1.14-2.79-1.61-4.64-2.35-1.25-.51-3-1.28-3-3.2s1.82-2.62,3.57-2.62a5.91,5.91,0,0,1,2.08.37A3.68,3.68,0,0,1,168,27.92a12.67,12.67,0,0,1,1.08-3.06,10.83,10.83,0,0,0-4.38-.84c-3.39,0-7.33,1.11-7.33,5.41,0,3.33,2.32,4.34,3.77,4.94l2,.74ZM183,23.34a126.31,126.31,0,0,1-.1,16.75,11.39,11.39,0,0,1-.67,3,14.93,14.93,0,0,1,2.39-.26,14,14,0,0,1,2.28.26,19.59,19.59,0,0,1-.77-6.72V32a69.25,69.25,0,0,0-.47-9.75c.4,1,1.28,2.28,3.63,6.05L195,37.54c1.88,2.92,2.12,3.33,3.33,5.51a9.86,9.86,0,0,1,1.92-.2,14.78,14.78,0,0,1,2.08.2,42.38,42.38,0,0,1-.37-6.56c0-4.17.07-8.34.24-12.54a14.55,14.55,0,0,1,.77-4.91c-.77.07-1.55.13-2.22.13A17.31,17.31,0,0,1,198.2,19c.37.74.94,1.95.94,7.83v4.34c0,2.09,0,5.59.13,7.44-.37-1.18-1-1.89-3.33-5.72l-5.41-8.85A44.28,44.28,0,0,1,187.94,19a26.76,26.76,0,0,1-3.36.2,22.41,22.41,0,0,1-3-.2c.77.88,1.11,1.28,1.34,4.37Zm46.38,11.71c0,5.34-.34,7.16-.94,8a19.2,19.2,0,0,1,2.72-.23,18.74,18.74,0,0,1,2.66.23,4.49,4.49,0,0,1-.64-2.12c-.34-2.32-.37-5.68-.27-16.68,0-3.16.24-3.73.84-5.28a26.7,26.7,0,0,1-3.36.24,11.68,11.68,0,0,1-2.59-.24,25.67,25.67,0,0,1-1.51,4.57l-2.9,6.83a50.57,50.57,0,0,0-2.72,7.17A35.16,35.16,0,0,0,218.78,32l-2.49-6.86A39.11,39.11,0,0,1,214.51,19c-1.15.1-2.19.2-3.23.2s-2.19-.1-3.3-.2c.44.4,1.25,1.08,1.15,6.42l-.07,3.47c-.24,5.48-.37,9.21-.67,11.13a11.7,11.7,0,0,1-.78,3.06,12.14,12.14,0,0,1,2.16-.2,19.9,19.9,0,0,1,2.42.2c-.47-1.68-.54-2.45-.47-5.72.06-4.5.16-7.66.16-11.23a28.92,28.92,0,0,0-.23-4.17c1,3.2,1.45,4.41,2.45,7l5.08,14H221l6-14.6c1.68-4.1,2.25-5.28,2.59-6.36-.21,1.75-.24,4.68-.24,6.8v6.29Zm10.56-1.42c0,1.11,0,2.22-.1,4.24-.14,4.14-.61,4.78-.91,5.15.84,0,1.55-.14,3-.14s2.89.14,4.94.14c2.9,0,7.13-.27,10-3.13,2.42-2.39,3.33-5.85,3.33-9.25a18.41,18.41,0,0,0-1-6.19c-2.05-5-6.93-5.45-10.26-5.45-2.49,0-4.1.31-6.22.31A24.55,24.55,0,0,1,239,19c.63,2,.84,2.73.87,10.56v4.07ZM243.33,29c0-2.49.1-5.79.17-7.33a37.37,37.37,0,0,1,4.13-.34A9.29,9.29,0,0,1,253.25,23c2.59,2.05,2.93,5.25,2.93,7.74,0,2.18-.24,6.66-3.67,8.74a12.13,12.13,0,0,1-5.72,1.28c-3.39,0-3.43-1.08-3.46-2.32V29Zm31.58-10.12a10.92,10.92,0,0,0-8.21,3.22c-2.92,3.1-3,7.47-3,9s0,6,3.19,9.18a9.62,9.62,0,0,0,4,2.45,12.72,12.72,0,0,0,3.9.58,10.77,10.77,0,0,0,8.41-3.37c2.76-3.09,2.92-7.26,2.92-9,0-3.13-.64-6.29-2.69-8.65a11.22,11.22,0,0,0-8.54-3.39Zm0,2.28a6.52,6.52,0,0,1,5.95,3.47A14.37,14.37,0,0,1,282.14,31a13.39,13.39,0,0,1-1.38,6.53,7.38,7.38,0,0,1-2.08,2.35A6.79,6.79,0,0,1,274.91,41a6.67,6.67,0,0,1-5.62-3c-.84-1.24-1.61-3.36-1.61-6.92,0-3.1.54-7.37,4-9.25a6.87,6.87,0,0,1,3.23-.78Zm16.24,10.56c0,2.49,0,4.81-.2,7.87a7.27,7.27,0,0,1-.81,3.5,25.08,25.08,0,0,1,2.69-.2,22.61,22.61,0,0,1,2.66.2c-.51-1-.88-1.82-.91-8.2V31.68c1.92-.1,3.84-.16,5.75-.16s3.57.06,5.55.16v3.2c-.13,4.24-.23,6.39-.91,8.17a24,24,0,0,1,2.66-.2,22.58,22.58,0,0,1,2.59.2,7.28,7.28,0,0,1-.74-3.13c-.17-2.18-.17-5-.17-8.24V29c.07-2.59.17-5.75.44-7.7a11.4,11.4,0,0,1,.5-2.26,20.85,20.85,0,0,1-2.55.21A21.18,21.18,0,0,1,305,19a11.43,11.43,0,0,1,.74,4.17c.07,1.15.07,2.33.1,3.77v2c-2.08.06-3.76.13-5.61.13s-3.8-.07-5.72-.13V27.24a53.06,53.06,0,0,1,.27-6,6.6,6.6,0,0,1,.67-2.19,20,20,0,0,1-2.62.21,20.87,20.87,0,0,1-2.62-.21,9.4,9.4,0,0,1,.67,3.2c.13,1.75.17,4,.2,6.76v2.72Zm32.15-.47a12.4,12.4,0,0,0,3.2,8.75c3.23,3.26,7.9,3.26,9.21,3.26a24.3,24.3,0,0,0,5.42-.57,19.22,19.22,0,0,1,.8-3.5A8,8,0,0,1,336.29,41a8.62,8.62,0,0,1-6.39-2.52,11.51,11.51,0,0,1-2.63-7.74,11.56,11.56,0,0,1,2.09-7.06A8.13,8.13,0,0,1,335.58,21a7.59,7.59,0,0,1,3.5.77,5.21,5.21,0,0,1,1.68,1.61,10.13,10.13,0,0,1,1.14-3.49,15.72,15.72,0,0,0-6.32-1c-8.1,0-12.31,4.37-12.31,12.37ZM352.36,24a8.89,8.89,0,0,0-6.45,2.46c-2.36,2.42-2.43,5.82-2.43,7.29a9.63,9.63,0,0,0,2.32,7,9,9,0,0,0,6.66,2.52c5.38,0,8.78-3.43,8.78-9.79,0-1,0-4.54-2.35-7A9,9,0,0,0,352.36,24Zm5.32,9.65c0,2.63-.34,7.47-5.25,7.47S347,36.26,347,33.63c0-3.16.57-7.5,5.58-7.5s5.12,5.69,5.12,7.5Zm22.6-2.55c0-3.26-.14-4.31-1-5.38A5,5,0,0,0,375.13,24c-3.43,0-5.25,1.14-6.73,4.13V26.44c0-1.25,0-1.92,0-2.69a15.1,15.1,0,0,1-4.81,1c.6.51,1,.88,1.24,2.93.17,1.68.21,3.43.21,5.14V38a22.37,22.37,0,0,1-.44,5.07,14.65,14.65,0,0,1,2.12-.2,15.34,15.34,0,0,1,2.12.2,16.32,16.32,0,0,1-.54-5.54V35.42c0-3.4,0-5.75,1.48-7.37a5,5,0,0,1,3.76-1.44c3.33,0,3.33,2.35,3.33,4.23v5.25c0,3.93,0,5-.5,7,.77-.06,1.51-.16,2.29-.16s1.48.1,2.18.16a13.31,13.31,0,0,1-.6-4.67V31.08Zm9.92,4c1.34.47,3,1.08,3,2.93a2.69,2.69,0,0,1-1.08,2.12,4.72,4.72,0,0,1-2.55.6c-3.13,0-4.27-1.27-4.91-2a24.47,24.47,0,0,1-.81,3.63,20.05,20.05,0,0,0,5.15.74c2.82,0,4.64-.54,6-1.92a5.39,5.39,0,0,0,1.42-3.76,4.52,4.52,0,0,0-1.08-3.13c-1.08-1.14-2.79-1.61-4.64-2.35-1.25-.51-3-1.28-3-3.2s1.82-2.62,3.57-2.62a5.91,5.91,0,0,1,2.08.37A3.68,3.68,0,0,1,395,27.92a12.67,12.67,0,0,1,1.08-3.06,10.82,10.82,0,0,0-4.37-.84c-3.4,0-7.34,1.11-7.34,5.41,0,3.33,2.32,4.34,3.77,4.94l2,.74ZM407.69,24a8.9,8.9,0,0,0-6.46,2.46c-2.36,2.42-2.42,5.82-2.42,7.29a9.63,9.63,0,0,0,2.32,7,9,9,0,0,0,6.66,2.52c5.38,0,8.77-3.43,8.77-9.79,0-1,0-4.54-2.35-7A9,9,0,0,0,407.69,24ZM413,33.63c0,2.63-.34,7.47-5.25,7.47s-5.45-4.84-5.45-7.47c0-3.16.58-7.5,5.59-7.5s5.11,5.69,5.11,7.5Zm7.4,4.65a22.48,22.48,0,0,1-.47,4.8,16.13,16.13,0,0,1,2.18-.23,14.68,14.68,0,0,1,2.09.23,16.83,16.83,0,0,1-.51-4.87V34.68c0-1.52,0-3.84,1.21-5.52a4.14,4.14,0,0,1,3.3-1.85,3.55,3.55,0,0,1,.91.14,11.08,11.08,0,0,1,.74-3.4c-4.1.23-5.45,3.26-6.12,4.74V26.57c0-1.34,0-1.38.1-2.79a11.76,11.76,0,0,1-4.71.94,3.91,3.91,0,0,1,1,2,25.59,25.59,0,0,1,.27,5.21v6.36ZM433.45,26c-.81,0-1.58,0-2.73-.1,0,.4.07.81.07,1.21s0,.77-.07,1.18c1.18-.07,2-.1,2.66-.1l-.13,10.66a4.58,4.58,0,0,0,.7,2.76c.54.7,1.52,1.47,4.11,1.47.47,0,1,0,2.05-.13a11.4,11.4,0,0,1,.33-2.76,4.19,4.19,0,0,1-1.61.34,2.14,2.14,0,0,1-1.65-.61c-.54-.6-.57-1.58-.57-3.33,0-2.82,0-5.61,0-8.4.81,0,1.89,0,3.4.1a5,5,0,0,1-.1-1c0-.47.07-.91.1-1.41-1.62.1-2.52.1-3.4.13V24a21.51,21.51,0,0,1,.34-4.87,12.46,12.46,0,0,1-4,1.07c.37.78.43,1,.47,3.63V26ZM443.6,37.57c0,3.8,0,3.87-.47,5.45.71-.07,1.45-.14,2.19-.14s1.44.07,2.18.14a17.7,17.7,0,0,1-.67-5.48V29.6a28.38,28.38,0,0,1,.41-5.89,11.49,11.49,0,0,1-4.81.94,2.7,2.7,0,0,1,.8,1.45,32.32,32.32,0,0,1,.37,5.82v5.65ZM445,22.3a2.07,2.07,0,1,0-2.09-2.08A2.09,2.09,0,0,0,445,22.3Zm18,11c0,2.39-.1,3.83-1.18,5.38a3.84,3.84,0,0,1-3.33,1.75c-3.29,0-3.29-2.59-3.33-3.8V28.29c0-3,0-3.33.37-4.58a11.35,11.35,0,0,1-4.74,1,3.13,3.13,0,0,1,.84,1.75,25.76,25.76,0,0,1,.27,3.76v7.67a5.54,5.54,0,0,0,.77,3.26,3.94,3.94,0,0,0,2.66,1.79,7.88,7.88,0,0,0,1.92.23A5.9,5.9,0,0,0,463.11,39l0,4a17.87,17.87,0,0,1,2.26-.2,11,11,0,0,1,2.05.2,3.29,3.29,0,0,1-.88-2,40.85,40.85,0,0,1-.27-4.91v-8a17,17,0,0,1,.41-4.48,13.57,13.57,0,0,1-4.78,1,2.37,2.37,0,0,1,.78,1.65,31.56,31.56,0,0,1,.3,4.1V33.3Zm8.58,5a16.23,16.23,0,0,1-.48,4.77c.71-.07,1.45-.17,2.16-.17s1.41.1,2.11.17a18.05,18.05,0,0,1-.53-4.71V33.77a10,10,0,0,1,1-5,4.08,4.08,0,0,1,3.63-2.15c3,0,3,2.22,3,5v6.69a13.84,13.84,0,0,1-.54,4.74c.67-.06,1.38-.13,2.12-.13s1.51.07,2.32.13c-.37-1-.57-1.85-.64-4.8V32.19a6.54,6.54,0,0,1,.77-3.9,4.05,4.05,0,0,1,3.43-1.62c3.33,0,3.4,2.36,3.4,5.32v6.29a16.5,16.5,0,0,1-.6,4.77,20.55,20.55,0,0,1,2.08-.13c.81,0,1.48.06,2.39.13a13.7,13.7,0,0,1-.61-4.81V31.78c0-3.93,0-5.51-1.61-6.76a5.49,5.49,0,0,0-3.47-1,6.18,6.18,0,0,0-5.95,3.59c-.37-2.45-2.39-3.59-4.64-3.59-3.8,0-5.28,2.72-6,4.06V26.67c0-.91,0-1.48.07-2.92a14.61,14.61,0,0,1-4.81.94,3.49,3.49,0,0,1,1.11,2.08,46.41,46.41,0,0,1,.34,5.38v6.13Z"/></g></g></svg>